<?xml version="1.0" encoding="utf-8"?>
<!-- Generator: Adobe Illustrator 16.0.0, SVG Export Plug-In . SVG Version: 6.00 Build 0)  -->
<!DOCTYPE svg PUBLIC "-//W3C//DTD SVG 1.1//EN" "http://www.w3.org/Graphics/SVG/1.1/DTD/svg11.dtd">
<svg version="1.1" id="Layer_1" focusable="false" xmlns="http://www.w3.org/2000/svg" xmlns:xlink="http://www.w3.org/1999/xlink"
	 x="0px" y="0px" width="16.303px" height="16.167px" viewBox="39.167 679.666 16.303 16.167"
	 enable-background="new 39.167 679.666 16.303 16.167" xml:space="preserve">
<path fill="#F10101" d="M42.122,687.26c0,0.17,0.057,0.31,0.169,0.426l3.408,3.405l0.856,0.857c0.113,0.112,0.254,0.169,0.423,0.169
	s0.311-0.057,0.424-0.169l0.855-0.857l3.408-3.405c0.113-0.116,0.169-0.256,0.169-0.426c0-0.169-0.057-0.312-0.169-0.422
	l-0.856-0.856c-0.114-0.113-0.254-0.172-0.424-0.172s-0.311,0.059-0.423,0.172l-1.779,1.778v-4.724c0-0.165-0.06-0.306-0.18-0.426
	c-0.119-0.119-0.26-0.178-0.424-0.178h-1.203c-0.164,0-0.306,0.059-0.424,0.178c-0.119,0.12-0.179,0.261-0.179,0.426v4.724
	l-1.78-1.778c-0.118-0.12-0.259-0.182-0.423-0.182c-0.163,0-0.304,0.062-0.423,0.182l-0.856,0.856
	C42.179,686.948,42.122,687.091,42.122,687.26L42.122,687.26z M39.75,687.25c0-1.311,0.323-2.52,0.97-3.628
	c0.646-1.106,1.523-1.983,2.631-2.63c1.107-0.646,2.317-0.97,3.627-0.97c1.312,0,2.52,0.324,3.628,0.97
	c1.108,0.646,1.984,1.523,2.631,2.63c0.646,1.108,0.969,2.317,0.969,3.628c0,1.313-0.323,2.521-0.969,3.63
	c-0.647,1.106-1.523,1.983-2.631,2.63c-1.108,0.646-2.316,0.97-3.628,0.97c-1.311,0-2.52-0.324-3.627-0.97
	c-1.108-0.646-1.985-1.523-2.631-2.63C40.073,689.771,39.75,688.563,39.75,687.25z"/>
</svg>
