<?xml version="1.0" encoding="utf-8"?>
<!-- Generator: Adobe Illustrator 16.0.0, SVG Export Plug-In . SVG Version: 6.00 Build 0)  -->
<!DOCTYPE svg PUBLIC "-//W3C//DTD SVG 1.1//EN" "http://www.w3.org/Graphics/SVG/1.1/DTD/svg11.dtd">
<svg version="1.1" id="Layer_1" focusable="false" xmlns="http://www.w3.org/2000/svg" xmlns:xlink="http://www.w3.org/1999/xlink"
	 x="0px" y="0px" width="16.303px" height="16.167px" viewBox="39.167 679.666 16.303 16.167"
	 enable-background="new 39.167 679.666 16.303 16.167" xml:space="preserve">
<path fill="#49AA0B" d="M51.835,687.242c0-0.17-0.057-0.31-0.169-0.426l-3.408-3.405l-0.856-0.857
	c-0.113-0.112-0.254-0.169-0.423-0.169s-0.311,0.057-0.424,0.169l-0.855,0.857l-3.408,3.405c-0.113,0.116-0.169,0.256-0.169,0.426
	c0,0.169,0.057,0.312,0.169,0.422l0.856,0.856c0.114,0.113,0.254,0.172,0.424,0.172s0.311-0.059,0.423-0.172l1.779-1.778v4.724
	c0,0.165,0.06,0.306,0.18,0.426c0.119,0.119,0.26,0.178,0.424,0.178h1.203c0.164,0,0.306-0.059,0.424-0.178
	c0.119-0.12,0.179-0.261,0.179-0.426v-4.724l1.78,1.778c0.118,0.12,0.259,0.182,0.423,0.182c0.163,0,0.304-0.062,0.423-0.182
	l0.856-0.856C51.778,687.554,51.835,687.411,51.835,687.242L51.835,687.242z M54.207,687.252c0,1.311-0.323,2.52-0.97,3.628
	c-0.646,1.106-1.523,1.983-2.631,2.63c-1.107,0.646-2.317,0.97-3.627,0.97c-1.312,0-2.52-0.324-3.628-0.97
	c-1.108-0.646-1.984-1.523-2.631-2.63c-0.646-1.108-0.969-2.317-0.969-3.628c0-1.313,0.323-2.521,0.969-3.63
	c0.647-1.106,1.523-1.983,2.631-2.63c1.108-0.646,2.316-0.97,3.628-0.97c1.311,0,2.52,0.324,3.627,0.97
	c1.108,0.646,1.985,1.523,2.631,2.63C53.884,684.73,54.207,685.939,54.207,687.252z"/>
</svg>
