<svg width="188" height="33" viewBox="0 0 188 33" fill="none" xmlns="http://www.w3.org/2000/svg">
<path d="M49.5898 15.6296C50.8693 14.5146 51.6437 12.9602 51.6437 11.0004C51.6437 6.91187 48.3103 4.24248 44.2025 4.24248H34.9767V27.8953H44.8759C49.0848 27.8953 52.4855 25.1583 52.4855 20.9684C52.4855 18.5693 51.3407 16.7447 49.5898 15.6296ZM44.2025 9.31094C45.4483 9.31094 46.2564 10.1895 46.2564 11.4059C46.2564 12.6223 45.4146 13.5009 44.2025 13.5009H40.364V9.31094H44.2025ZM44.8759 22.8268H40.364V18.299H44.8759C46.2227 18.299 47.0982 19.2451 47.0982 20.5629C47.0982 21.8807 46.2227 22.8268 44.8759 22.8268Z" fill="white"/>
<path d="M54.9977 27.8953H60.0483V3.22879H54.9977V27.8953Z" fill="white"/>
<path d="M71.8252 28.3683C76.7748 28.3683 80.748 24.4825 80.748 19.4479C80.748 14.4132 76.7748 10.5274 71.8252 10.5274C66.8756 10.5274 62.9024 14.4132 62.9024 19.4479C62.9024 24.4825 66.8756 28.3683 71.8252 28.3683ZM71.8252 23.435C69.6366 23.435 67.9531 21.8469 67.9531 19.4479C67.9531 17.0488 69.6366 15.4607 71.8252 15.4607C74.0138 15.4607 75.6973 17.0488 75.6973 19.4479C75.6973 21.8469 74.0138 23.435 71.8252 23.435Z" fill="white"/>
<path d="M91.6857 28.3683C96.6353 28.3683 100.608 24.4825 100.608 19.4479C100.608 14.4132 96.6353 10.5274 91.6857 10.5274C86.7361 10.5274 82.763 14.4132 82.763 19.4479C82.763 24.4825 86.7361 28.3683 91.6857 28.3683ZM91.6857 23.435C89.4971 23.435 87.8136 21.8469 87.8136 19.4479C87.8136 17.0488 89.4971 15.4607 91.6857 15.4607C93.8743 15.4607 95.5579 17.0488 95.5579 19.4479C95.5579 21.8469 93.8743 23.435 91.6857 23.435Z" fill="white"/>
<path d="M122.321 10.5274C119.93 10.5274 118.381 11.4059 117.439 12.7575C116.496 11.3383 115.014 10.5274 113.028 10.5274C110.772 10.5274 109.29 11.4059 108.516 12.5548V11.0004H103.465V27.8953H108.516V18.3666C108.516 16.373 109.459 15.1904 111.142 15.1904C112.758 15.1904 113.566 16.2716 113.566 17.9611V27.8953H118.617V18.3666C118.617 16.373 119.56 15.1904 121.243 15.1904C122.86 15.1904 123.668 16.2716 123.668 17.9611V27.8953H128.718V17.5218C128.718 13.2981 126.193 10.5274 122.321 10.5274Z" fill="white"/>
<path d="M148.333 27.8953L142.036 19.4479L148.165 11.0004H142.272L137.222 18.4004V4.24248H132.171V27.8953H137.222V20.4278L142.609 27.8953H148.333Z" fill="white"/>
<path d="M152.715 9.51368C154.365 9.51368 155.746 8.1283 155.746 6.4726C155.746 4.81691 154.365 3.43153 152.715 3.43153C151.066 3.43153 149.685 4.81691 149.685 6.4726C149.685 8.1283 151.066 9.51368 152.715 9.51368ZM150.19 27.8953H155.241V11.0004H150.19V27.8953Z" fill="white"/>
<path d="M168.802 15.8661V11.0004H165.334V6.26987L160.283 7.7904V11.0004H157.59V15.8661H160.283V21.8469C160.283 26.5775 162.203 28.5711 168.802 27.8953V23.2999C166.58 23.435 165.334 23.2999 165.334 21.8469V15.8661H168.802Z" fill="white"/>
<path d="M175.845 21.4752H187.798C187.933 20.8332 188 20.1574 188 19.4479C188 14.3456 184.364 10.5274 179.448 10.5274C174.128 10.5274 170.491 14.4132 170.491 19.4479C170.491 24.4825 174.06 28.3683 179.818 28.3683C183.017 28.3683 185.508 27.1857 187.158 24.888L183.118 22.5565C182.444 23.2999 181.266 23.8405 179.885 23.8405C178.034 23.8405 176.485 23.2323 175.845 21.4752ZM175.744 17.6908C176.215 15.9675 177.495 15.0214 179.414 15.0214C180.929 15.0214 182.444 15.731 182.983 17.6908H175.744Z" fill="white"/>
<path fill-rule="evenodd" clip-rule="evenodd" d="M2.66211 8.95098L12.0095 -3.05176e-05L21.3568 8.95098C17.9918 11.3959 12.508 17.2804 12.0095 20.637C11.3863 17.0317 5.90253 11.2716 2.66211 8.95098Z" fill="#31C9BC"/>
<path fill-rule="evenodd" clip-rule="evenodd" d="M0.00356508 20.9871V10.9255C10.0559 15.8942 11.0085 27.2394 10.2283 32.2909C9.03749 31.5042 5.89204 29.5333 2.83693 27.9433C-0.0369691 26.4476 -0.0112175 23.0393 0.0019537 21.2961C0.00278418 21.1862 0.00356465 21.0829 0.00356508 20.9871ZM23.5469 20.9871V10.9255C13.4946 15.8942 12.542 27.2394 13.3222 32.2909C14.513 31.5042 17.6585 29.5333 20.7136 27.9433C23.5875 26.4476 23.5617 23.0393 23.5486 21.2961C23.5477 21.1862 23.5469 21.0829 23.5469 20.9871Z" fill="#ED4D45"/>
</svg>
