<?xml version="1.0" encoding="utf-8"?>
<!-- Generator: Adobe Illustrator 16.0.0, SVG Export Plug-In . SVG Version: 6.00 Build 0)  -->
<!DOCTYPE svg PUBLIC "-//W3C//DTD SVG 1.1//EN" "http://www.w3.org/Graphics/SVG/1.1/DTD/svg11.dtd">
<svg version="1.1" id="Layer_1" xmlns="http://www.w3.org/2000/svg" xmlns:xlink="http://www.w3.org/1999/xlink" x="0px" y="0px"
	 width="94.587px" height="38.848px" viewBox="0 0 94.587 38.848" enable-background="new 0 0 94.587 38.848" xml:space="preserve">
<path fill="#CC203B" d="M91.194,32.488c0,1.855-1.504,3.359-3.359,3.359H7.623c-1.855,0-3.359-1.504-3.359-3.359V7.283
	c0-1.855,1.504-3.359,3.359-3.359h80.212c1.855,0,3.359,1.504,3.359,3.359V32.488z"/>
<g>
	<path fill="#FFFFFF" d="M17.864,19.32c0-3.084,1.271-5.232,4.385-5.232c1.83,0,3.614,0.968,3.614,2.918
		c0,0.076-0.015,0.197-0.03,0.272h-1.315c-0.076-1.18-0.893-1.966-2.314-1.966c-2.238,0-2.934,1.678-2.934,4.007
		c0,2.375,0.756,3.947,2.994,3.947c1.633,0,2.344-0.938,2.374-2.117h1.316c0.03,0.105,0.03,0.227,0.03,0.272
		c0,1.966-1.648,3.07-3.69,3.07C18.983,24.492,17.864,22.542,17.864,19.32z"/>
	<path fill="#FFFFFF" d="M33.255,24.371h-1.028c-0.106-0.167-0.212-0.499-0.212-0.968h-0.06c-0.605,0.922-1.648,1.104-2.389,1.104
		c-1.437,0-2.586-0.681-2.586-2.193c0-2.011,1.814-2.465,3.448-2.465c0.544,0,1.059,0.045,1.497,0.106v-0.393
		c0-1.059-0.529-1.527-1.664-1.527c-0.695,0-1.331,0.212-1.497,0.922h-1.209c-0.015-0.076-0.015-0.136-0.015-0.181
		c0-1.452,1.572-1.845,2.737-1.845c2.359,0,2.979,1.089,2.979,2.48V24.371z M31.94,21.559v-0.544
		c-0.469-0.106-0.983-0.136-1.467-0.136c-1.134,0-2.132,0.333-2.132,1.437c0,0.605,0.514,1.089,1.376,1.089
		C31.123,23.403,31.94,22.466,31.94,21.559z"/>
	<path fill="#FFFFFF" d="M35.219,13.62h1.315v9.285c0,0.438,0.091,0.499,0.711,0.499v0.983c-0.348,0.091-0.635,0.121-0.862,0.121
		c-1.119,0-1.164-0.605-1.164-1.542V13.62z"/>
	<path fill="#FFFFFF" d="M44.623,19.018c0,0.091-0.015,0.227-0.03,0.287h-1.225c-0.075-0.907-0.922-1.149-1.497-1.149
		c-1.482,0-1.981,1.043-1.981,2.586c0,1.542,0.529,2.57,1.981,2.57c0.801,0,1.603-0.333,1.648-1.437h1.21
		c0.015,0.106,0.03,0.212,0.03,0.303c0,1.421-1.195,2.313-2.798,2.313c-2.313,0-3.433-1.271-3.433-3.645
		c0-2.298,0.983-3.901,3.357-3.901C43.202,16.946,44.623,17.551,44.623,19.018z"/>
	<path fill="#FFFFFF" d="M51.047,23.343c-0.575,0.832-1.603,1.149-2.268,1.149c-2.329,0-2.677-1.542-2.677-2.888v-4.552h1.361v4.279
		c0,1.24,0.227,2.072,1.618,2.072c1.346,0,1.92-1.24,1.92-2.344v-4.007h1.331v7.319H51.35c-0.166-0.242-0.242-0.499-0.242-1.028
		H51.047z"/>
	<path fill="#FFFFFF" d="M54.296,13.62h1.315v9.285c0,0.438,0.091,0.499,0.711,0.499v0.983c-0.348,0.091-0.635,0.121-0.862,0.121
		c-1.119,0-1.164-0.605-1.164-1.542V13.62z"/>
	<path fill="#FFFFFF" d="M63.655,24.371h-1.028c-0.106-0.167-0.211-0.499-0.211-0.968h-0.061c-0.605,0.922-1.648,1.104-2.389,1.104
		c-1.437,0-2.586-0.681-2.586-2.193c0-2.011,1.814-2.465,3.448-2.465c0.544,0,1.059,0.045,1.497,0.106v-0.393
		c0-1.059-0.529-1.527-1.664-1.527c-0.695,0-1.331,0.212-1.497,0.922h-1.209c-0.015-0.076-0.015-0.136-0.015-0.181
		c0-1.452,1.573-1.845,2.737-1.845c2.359,0,2.979,1.089,2.979,2.48V24.371z M62.34,21.559v-0.544
		c-0.469-0.106-0.983-0.136-1.467-0.136c-1.134,0-2.132,0.333-2.132,1.437c0,0.605,0.514,1.089,1.376,1.089
		C61.523,23.403,62.34,22.466,62.34,21.559z"/>
	<path fill="#FFFFFF" d="M67.403,17.052h2.147v1.028h-2.147v3.932c0,1.179,0.423,1.376,1.527,1.376c0.242,0,0.575-0.03,0.892-0.076
		v1.059c-0.454,0.091-0.953,0.121-1.3,0.121c-1.77,0-2.45-0.499-2.45-2.525v-3.886h-1.18v-0.847l1.255-0.167l0.317-1.936h0.938
		V17.052z"/>
	<path fill="#FFFFFF" d="M77.291,20.046c0,0.317-0.03,0.666-0.106,0.983h-4.959c0,1.406,0.589,2.313,2.056,2.313
		c1.21,0,1.648-0.544,1.739-1.225h1.194c0.015,0.09,0.015,0.181,0.015,0.272c0,1.467-1.467,2.117-2.949,2.117
		c-2.283,0-3.417-1.24-3.417-3.735c0-2.086,1.013-3.826,3.327-3.826C76.292,16.946,77.291,18.353,77.291,20.046z M72.271,20.016
		h3.705c0-1.149-0.59-1.905-1.799-1.905C73.011,18.111,72.361,18.867,72.271,20.016z"/>
</g>
</svg>
