<?xml version="1.0" encoding="utf-8"?>
<!-- Generator: Adobe Illustrator 16.0.0, SVG Export Plug-In . SVG Version: 6.00 Build 0)  -->
<!DOCTYPE svg PUBLIC "-//W3C//DTD SVG 1.1//EN" "http://www.w3.org/Graphics/SVG/1.1/DTD/svg11.dtd">
<svg version="1.1" id="Layer_1" xmlns="http://www.w3.org/2000/svg" xmlns:xlink="http://www.w3.org/1999/xlink" x="0px" y="0px"
	 width="94.587px" height="38.848px" viewBox="0 0 94.587 38.848" enable-background="new 0 0 94.587 38.848" xml:space="preserve">
<path fill="#8C8C8C" d="M91.194,32.488c0,1.855-1.504,3.359-3.359,3.359H7.623c-1.855,0-3.359-1.504-3.359-3.359V7.283
	c0-1.855,1.504-3.359,3.359-3.359h80.212c1.855,0,3.359,1.504,3.359,3.359V32.488z"/>
<g>
	<path fill="#FFFFFF" d="M33.371,20.288l3.07,4.083h-1.664l-3.009-4.068h-1.376v4.068h-1.361V14.164h3.886
		c2.208,0,3.448,1.24,3.448,3.1C36.365,18.595,35.518,20.107,33.371,20.288z M30.392,15.389v3.689h2.389
		c1.059,0,2.193-0.393,2.193-1.83c0-1.165-0.968-1.86-2.193-1.86H30.392z"/>
	<path fill="#FFFFFF" d="M43.832,20.046c0,0.317-0.03,0.666-0.106,0.983h-4.959c0,1.406,0.589,2.313,2.056,2.313
		c1.21,0,1.648-0.544,1.739-1.225h1.194c0.015,0.09,0.015,0.181,0.015,0.272c0,1.467-1.467,2.117-2.949,2.117
		c-2.283,0-3.417-1.24-3.417-3.735c0-2.086,1.013-3.826,3.327-3.826C42.834,16.946,43.832,18.353,43.832,20.046z M38.812,20.016
		h3.705c0-1.149-0.59-1.905-1.799-1.905C39.553,18.111,38.902,18.867,38.812,20.016z"/>
	<path fill="#FFFFFF" d="M49.712,22.33c0-0.756-0.423-1.013-1.618-1.149c-1.421-0.167-2.768-0.363-2.768-1.996
		c0-1.104,0.696-2.238,2.828-2.238c1.149,0,2.691,0.469,2.691,1.754c0,0.091-0.015,0.196-0.03,0.272h-1.285
		c-0.136-0.726-0.877-0.907-1.452-0.907c-0.998,0-1.421,0.469-1.421,0.983c0,0.741,0.62,0.816,1.799,0.983
		c1.739,0.242,2.586,0.741,2.586,2.223c0,1.119-0.893,2.223-2.979,2.223c-1.286,0-2.949-0.514-2.949-2.042
		c0-0.106,0.015-0.227,0.045-0.363h1.27c0.106,1.149,1.149,1.3,1.799,1.3C49.258,23.373,49.712,22.829,49.712,22.33z"/>
	<path fill="#FFFFFF" d="M58.858,20.046c0,0.317-0.03,0.666-0.106,0.983h-4.959c0,1.406,0.589,2.313,2.056,2.313
		c1.21,0,1.648-0.544,1.739-1.225h1.194c0.015,0.09,0.015,0.181,0.015,0.272c0,1.467-1.467,2.117-2.949,2.117
		c-2.283,0-3.417-1.24-3.417-3.735c0-2.086,1.013-3.826,3.327-3.826C57.86,16.946,58.858,18.353,58.858,20.046z M53.838,20.016
		h3.705c0-1.149-0.59-1.905-1.799-1.905C54.579,18.111,53.929,18.867,53.838,20.016z"/>
	<path fill="#FFFFFF" d="M62.44,17.052h2.147v1.028H62.44v3.932c0,1.179,0.423,1.376,1.527,1.376c0.242,0,0.575-0.03,0.892-0.076
		v1.059c-0.454,0.091-0.953,0.121-1.3,0.121c-1.77,0-2.45-0.499-2.45-2.525v-3.886h-1.18v-0.847l1.255-0.167l0.317-1.936h0.938
		V17.052z"/>
</g>
</svg>
