<?xml version="1.0" encoding="utf-8"?>
<!-- Generator: Adobe Illustrator 16.0.0, SVG Export Plug-In . SVG Version: 6.00 Build 0)  -->
<!DOCTYPE svg PUBLIC "-//W3C//DTD SVG 1.1//EN" "http://www.w3.org/Graphics/SVG/1.1/DTD/svg11.dtd">
<svg version="1.1" id="Layer_1" xmlns="http://www.w3.org/2000/svg" xmlns:xlink="http://www.w3.org/1999/xlink" x="0px" y="0px"
	 width="56.333px" height="22.667px" viewBox="0 0 56.333 22.667" enable-background="new 0 0 56.333 22.667" xml:space="preserve">
<g>
	<path fill="#FFFFFF" d="M11.629,13.486v2.959c0,0.109-0.04,0.203-0.119,0.283c-0.08,0.079-0.174,0.119-0.283,0.119h-0.55
		c-0.109,0-0.203-0.04-0.283-0.119c-0.079-0.08-0.119-0.174-0.119-0.283v-2.959H7.362c-0.109,0-0.204-0.04-0.283-0.119
		C7,13.288,6.96,13.194,6.96,13.084v-0.461c0-0.109,0.04-0.203,0.119-0.283c0.079-0.079,0.173-0.119,0.283-0.119h2.914V9.308
		c0-0.109,0.04-0.203,0.119-0.282c0.08-0.08,0.174-0.119,0.283-0.119h0.55c0.109,0,0.203,0.04,0.283,0.119
		c0.079,0.079,0.119,0.173,0.119,0.282v2.915h2.929c0.109,0,0.203,0.04,0.282,0.119c0.08,0.08,0.119,0.173,0.119,0.283v0.461
		c0,0.109-0.04,0.203-0.119,0.283c-0.079,0.079-0.173,0.119-0.282,0.119H11.629z"/>
	<path fill="#FFFFFF" d="M26.379,14.988h-5.16l-0.773,1.978c-0.03,0.079-0.084,0.161-0.164,0.245
		c-0.079,0.084-0.218,0.126-0.416,0.126h-0.55c-0.089,0-0.166-0.032-0.23-0.097c-0.064-0.064-0.097-0.141-0.097-0.23
		c0-0.049,0.02-0.119,0.059-0.208l3.643-9.382c0.049-0.109,0.124-0.218,0.223-0.327c0.099-0.109,0.248-0.164,0.446-0.164h0.892
		c0.198,0,0.347,0.055,0.446,0.164c0.099,0.109,0.173,0.218,0.223,0.327l3.628,9.382c0.04,0.089,0.06,0.159,0.06,0.208
		c0,0.089-0.033,0.166-0.097,0.23c-0.064,0.065-0.141,0.097-0.23,0.097h-0.55c-0.198,0-0.337-0.042-0.417-0.126
		c-0.079-0.084-0.134-0.166-0.163-0.245L26.379,14.988z M21.74,13.649h4.119l-2.052-5.308L21.74,13.649z"/>
	<path fill="#FFFFFF" d="M38.215,10.958c0.01,0.446,0.015,0.838,0.015,1.175s-0.005,0.729-0.015,1.175
		c-0.01,0.625-0.119,1.187-0.327,1.688s-0.496,0.924-0.862,1.271c-0.367,0.348-0.803,0.612-1.309,0.796
		c-0.505,0.184-1.065,0.275-1.68,0.275h-3.494c-0.109,0-0.204-0.039-0.283-0.119c-0.08-0.079-0.119-0.173-0.119-0.282V7.33
		c0-0.108,0.04-0.203,0.119-0.282c0.079-0.08,0.173-0.119,0.283-0.119h3.404c0.615,0,1.182,0.092,1.703,0.275
		C36.171,7.388,36.619,7.652,36.996,8c0.377,0.347,0.671,0.771,0.885,1.271C38.093,9.771,38.205,10.333,38.215,10.958z
		 M36.803,11.032c-0.01-0.356-0.067-0.701-0.171-1.033c-0.104-0.332-0.27-0.627-0.498-0.885c-0.228-0.257-0.525-0.463-0.892-0.617
		s-0.818-0.23-1.353-0.23h-2.334v7.731h2.409c0.535,0,0.984-0.077,1.346-0.23c0.362-0.153,0.651-0.359,0.87-0.617
		s0.374-0.553,0.469-0.885c0.094-0.332,0.146-0.677,0.156-1.033c0-0.218,0.002-0.414,0.007-0.587s0.007-0.342,0.007-0.506
		s-0.002-0.332-0.007-0.505S36.803,11.261,36.803,11.032z"/>
	<path fill="#FFFFFF" d="M48.444,10.958c0.01,0.446,0.015,0.838,0.015,1.175s-0.005,0.729-0.015,1.175
		c-0.01,0.625-0.119,1.187-0.327,1.688c-0.208,0.5-0.496,0.924-0.862,1.271c-0.367,0.348-0.803,0.612-1.309,0.796
		c-0.506,0.184-1.066,0.275-1.68,0.275h-3.495c-0.108,0-0.203-0.039-0.282-0.119c-0.079-0.079-0.119-0.173-0.119-0.282V7.33
		c0-0.108,0.04-0.203,0.119-0.282s0.174-0.119,0.282-0.119h3.405c0.615,0,1.182,0.092,1.703,0.275C46.4,7.388,46.848,7.652,47.225,8
		c0.376,0.347,0.671,0.771,0.885,1.271C48.323,9.771,48.434,10.333,48.444,10.958z M47.032,11.032
		c-0.01-0.356-0.067-0.701-0.171-1.033c-0.104-0.332-0.27-0.627-0.498-0.885c-0.228-0.257-0.526-0.463-0.892-0.617
		c-0.367-0.154-0.818-0.23-1.353-0.23h-2.334v7.731h2.409c0.536,0,0.983-0.077,1.346-0.23c0.361-0.153,0.652-0.359,0.87-0.617
		s0.374-0.553,0.468-0.885s0.146-0.677,0.156-1.033c0-0.218,0.002-0.414,0.008-0.587c0.004-0.173,0.007-0.342,0.007-0.506
		s-0.002-0.332-0.007-0.505C47.034,11.461,47.032,11.261,47.032,11.032z"/>
</g>
</svg>
