<svg id="Layer_1" data-name="Layer 1" xmlns="http://www.w3.org/2000/svg" viewBox="0 0 2529.01 425.2"><defs><style>.cls-1{fill:none;}.cls-2{fill:#fff;}.cls-3{fill:#db0011;}</style></defs><rect class="cls-1" x="-0.29" y="-0.57" width="2530.38" height="425.71"/><rect class="cls-2" x="1160.33" y="141.67" width="3.32" height="141.72"/><path class="cls-2" d="M1233.28,243.13c-18.4,0-26-14-26-30.71,0-16.34,8.13-30.62,26-30.62,18.64,0,26.11,13,26.11,30.13C1259.39,228.68,1251.92,243.13,1233.28,243.13Zm0-56.82c-14.78,0-20.12,13.3-20.12,26.11s5.26,26.28,20.12,26.28,20.2-13.3,20.2-26.28C1253.48,199,1248.63,186.31,1233.28,186.31Z"/><path class="cls-2" d="M1284.42,242.88c-6.32,0-9.85-2.46-13.3-7.55v22.5h-5V213.16c0-4.1-.08-8.29-.32-12.4h5.09l.24,7.72c3.21-5.83,7.64-8.46,14.29-8.46,12,0,17.24,10,17.24,20.86C1302.65,232,1296.66,242.88,1284.42,242.88Zm.33-38.91c-9.93,0-13.63,9-13.63,17.65,0,8.21,3,17.24,12.65,17.24,9.93,0,13.55-8.7,13.55-17.41,0-8-3-17.45-12.57-17.45Z"/><path class="cls-2" d="M1312.5,223.26c0,8.38,4.68,16.18,13.79,16.18,6.57,0,10.68-4.11,11.75-10.35h4.76c-1.73,9.28-7.8,14-17.16,14-12.65,0-18.23-9.28-18.23-20.94,0-11.9,5.83-22.08,18.88-22.08,13.22,0,16.75,11.08,16.75,22.17H1312.5ZM1326,204c-8.38,0-12.65,7.06-13.3,14.61H1338v-.82C1338,210.45,1333.85,204,1326,204Z"/><path class="cls-2" d="M1379,218.83c0-7.72-.9-14.29-10.42-14.29-9.36,0-12.65,7.39-12.65,15.6v22.09h-5V212.5c0-3.94-.24-7.8-.24-11.74h4.92l.33,6.9c3.37-5,7.47-7.31,13.55-7.31,11.25,0,14.53,6.24,14.53,16.51v25.37h-5Z"/><path class="cls-2" d="M1392.63,182.86h6v6.24h-6Zm.49,17.9h5v41.47h-5Z"/><path class="cls-2" d="M1437.21,218.83c0-7.72-.9-14.29-10.43-14.29-9.36,0-12.64,7.39-12.64,15.6v22.09h-5V212.5c0-3.94-.25-7.8-.25-11.74h4.93l.33,6.9c3.36-5,7.47-7.31,13.55-7.31,11.24,0,14.53,6.24,14.53,16.51v25.37h-5Z"/><path class="cls-2" d="M1487,214.15v20.52c0,17.08-4.27,24.06-18.22,24.06-8,0-16.34-2.63-16.34-12.07h5.09c0,6.41,5.25,8.38,10.83,8.38,10,0,13.55-5.42,13.55-20.78-3.28,5.26-7.63,7.72-13.87,7.72-12.48,0-18.15-9.36-18.15-20.85,0-10.92,5.91-21.11,17.9-21.11,6.4,0,11.25,2.71,14.29,8.38,0-2.55.08-5.09.08-7.64h5.17C1487,206.35,1487,209.63,1487,214.15ZM1468.74,204c-9.86,0-13.39,8.86-13.39,17.4s3.7,16.92,13.3,16.92c9.94,0,13.39-8.95,13.39-17.57C1482,212.75,1477.77,204,1468.74,204Z"/><path class="cls-2" d="M1549,235.58c-3.45,4.92-7.39,7.06-13.47,7.06-11.08,0-14.78-6.08-14.78-16.51V200.76h5v23.4c0,7.72,1.81,14.29,10.59,14.29,9.36,0,12.48-7.8,12.48-16V200.76h5v29.07c0,4.1.09,8.29.25,12.4h-4.93Z"/><path class="cls-2" d="M1582.77,242.88c-6.32,0-9.85-2.46-13.3-7.55v22.5h-5V213.16c0-4.1-.08-8.29-.33-12.4h5.09l.25,7.72c3.2-5.83,7.63-8.46,14.28-8.46,12,0,17.25,10,17.25,20.86C1601,232,1595,242.88,1582.77,242.88Zm.33-38.91c-9.94,0-13.63,9-13.63,17.65,0,8.21,3,17.24,12.64,17.24,9.94,0,13.55-8.7,13.55-17.41,0-8-3-17.45-12.56-17.45Z"/><path class="cls-2" d="M1657.15,236.23c-3.45,5.26-7.72,6.9-13.87,6.9-7.56,0-14.45-3.78-14.45-12.15,0-13.22,15.43-13.63,25.61-13.63h2.14c.08-1,.08-1.89.08-2.87,0-7.07-2.79-10.68-10.1-10.68-5.34,0-9,1.73-9.61,7.64h-5c.08-8.3,7.22-11.42,14.53-11.42,10.26,0,15,4.27,15,14.54v12.31a135.91,135.91,0,0,0,.82,15.36h-4.6C1657.65,240.26,1657.4,238.2,1657.15,236.23Zm-4.51-15.35c-6.9,0-18.72.41-18.72,9.93,0,5.75,5,8.71,10.26,8.71,11.82,0,12.56-9.36,12.56-18.48-1.39,0-2.74-.16-4.1-.16Z"/><path class="cls-2" d="M1734.57,242.23l-12.4-36-12.56,36h-4.84l-14.7-41.47h5.67l11.57,35.47,12.32-35.47h5.66l11.91,35.06,11.8-35.06h5.09l-15,41.47Z"/><path class="cls-2" d="M1776,243.13c-13,0-19.46-9.77-19.46-21.92,0-12,6.81-21.27,19.46-21.27,12.81,0,19.38,9.12,19.38,21.27C1795.33,232.87,1788.43,243.13,1776,243.13Zm0-39.08c-9.94,0-14.12,8.21-14.12,17.16,0,8.78,4.1,18.06,14.12,18.06,9.85,0,14-9.52,14-18.06C1790,212.34,1785.88,204.05,1776,204.05Z"/><path class="cls-2" d="M1819.87,205.36c-8.87,0-11.66,5.17-11.66,13.38v23.49h-5V212.91c0-4-.17-8.12-.25-12.15h4.92l.33,6.49c3-4.76,7.15-6.73,12.73-6.73a22,22,0,0,1,2.3.16v5A15.28,15.28,0,0,0,1819.87,205.36Z"/><path class="cls-2" d="M1829.89,182.86h5v59.37h-5Z"/><path class="cls-2" d="M1876,235.33c-3.53,5.25-7.15,7.55-13.55,7.55-12.48,0-18-10.59-18-21.84,0-10.67,5.66-21,17.57-21,6.57,0,10.75,2.39,14,8.13V182.86h5v47c0,4.1,0,8.29.32,12.4h-4.92ZM1862.4,204c-9.69,0-12.65,9.36-12.65,17.48,0,8.63,3.53,17.41,13.55,17.41,9.69,0,12.65-9,12.65-17.24C1876,213.08,1872.25,204,1862.4,204Z"/><path class="cls-2" d="M1931.28,243.13c-13,0-19.46-9.77-19.46-21.92,0-12,6.81-21.27,19.46-21.27,12.81,0,19.38,9.12,19.38,21.27C1950.66,232.87,1943.76,243.13,1931.28,243.13Zm0-39.08c-9.94,0-14.12,8.21-14.12,17.16,0,8.78,4.1,18.06,14.12,18.06,9.85,0,14-9.52,14-18.06C1945.32,212.34,1941.21,204.05,1931.28,204.05Z"/><path class="cls-2" d="M1973.23,186.23c-6.07,0-7.06,2.22-7.06,8v6.57h9.2v3.7h-9.2v37.77h-5V204.46h-8.37v-3.7h8.37V194.6c0-6.48,1-12.31,9.77-12.31,1.73,0,3.45.08,5.18.24v3.86C1975.37,186.31,1974.22,186.23,1973.23,186.23Z"/><path class="cls-2" d="M2020.69,243.13c-13,0-19.46-9.77-19.46-21.92,0-12,6.81-21.27,19.46-21.27,12.81,0,19.37,9.12,19.37,21.27C2040.06,232.87,2033.17,243.13,2020.69,243.13Zm0-39.08c-9.94,0-14.13,8.21-14.13,17.16,0,8.78,4.11,18.06,14.13,18.06,9.85,0,14-9.52,14-18.06C2034.73,212.34,2030.62,204.05,2020.69,204.05Z"/><path class="cls-2" d="M2066.25,242.88c-6.32,0-9.85-2.46-13.3-7.55v22.5h-5V213.16c0-4.1-.08-8.29-.33-12.4h5.09l.25,7.72c3.2-5.83,7.64-8.46,14.29-8.46,12,0,17.24,10,17.24,20.86C2084.48,232,2078.49,242.88,2066.25,242.88Zm.33-38.91c-9.94,0-13.63,9-13.63,17.65,0,8.21,3,17.24,12.64,17.24,9.94,0,13.55-8.7,13.55-17.41,0-8-2.95-17.45-12.56-17.45Z"/><path class="cls-2" d="M2109,242.88c-6.32,0-9.85-2.46-13.3-7.55v22.5h-5V213.16c0-4.1-.08-8.29-.32-12.4h5.09l.24,7.72c3.21-5.83,7.64-8.46,14.29-8.46,12,0,17.24,10,17.24,20.86C2127.25,232,2121.26,242.88,2109,242.88Zm.33-38.91c-9.93,0-13.63,9-13.63,17.65,0,8.21,3,17.24,12.65,17.24,9.93,0,13.55-8.7,13.55-17.41,0-8-2.9-17.45-12.55-17.45Z"/><path class="cls-2" d="M2153.11,243.13c-13,0-19.46-9.77-19.46-21.92,0-12,6.82-21.27,19.46-21.27,12.81,0,19.38,9.12,19.38,21.27C2172.49,232.87,2165.59,243.13,2153.11,243.13Zm0-39.08c-9.93,0-14.12,8.21-14.12,17.16,0,8.78,4.1,18.06,14.12,18.06,9.85,0,14-9.52,14-18.06C2167.15,212.34,2163.05,204.05,2153.11,204.05Z"/><path class="cls-2" d="M2195.39,205.36c-8.86,0-11.66,5.17-11.66,13.38v23.49h-5V212.91c0-4-.17-8.12-.25-12.15h4.93l.32,6.49c3-4.76,7.15-6.73,12.73-6.73a22,22,0,0,1,2.3.16v5A15.28,15.28,0,0,0,2195.39,205.36Z"/><path class="cls-2" d="M2220,242.56c-6,0-8.78-2.88-8.78-8.87V204.46H2203v-3.7h8.21v-8.54l5-2.21v10.75h9.27v3.7h-9.27v27c0,4.68.65,6.9,5.83,6.9a25.09,25.09,0,0,0,3.77-.49v4.27A47.15,47.15,0,0,1,2220,242.56Z"/><path class="cls-2" d="M2260.09,235.58c-3.45,4.92-7.39,7.06-13.47,7.06-11.08,0-14.78-6.08-14.78-16.51V200.76h5v23.4c0,7.72,1.81,14.29,10.59,14.29,9.36,0,12.48-7.8,12.48-16V200.76h5v29.07c0,4.1.08,8.29.25,12.4h-4.93Z"/><path class="cls-2" d="M2302.37,218.83c0-7.72-.9-14.29-10.43-14.29-9.36,0-12.64,7.39-12.64,15.6v22.09h-5V212.5c0-3.94-.25-7.8-.25-11.74H2279l.33,6.9c3.36-5,7.47-7.31,13.54-7.31,11.25,0,14.54,6.24,14.54,16.51v25.37h-5Z"/><path class="cls-2" d="M2316,182.86h6v6.24h-6Zm.5,17.9h5v41.47h-5Z"/><path class="cls-2" d="M2345.47,242.56c-6,0-8.79-2.88-8.79-8.87V204.46h-8.21v-3.7h8.21v-8.54l5-2.21v10.75H2351v3.7h-9.28v27c0,4.68.66,6.9,5.83,6.9a25.39,25.39,0,0,0,3.78-.49v4.27A47.82,47.82,0,0,1,2345.47,242.56Z"/><path class="cls-2" d="M2364.43,257.83,2371,242l-17.41-41.22h6l13.87,34.73,13.8-34.73h5l-22.75,57.07Z"/><rect class="cls-2" x="212.6" y="141.73" width="141.73" height="141.73"/><polygon class="cls-3" points="425.2 212.6 354.33 141.73 354.33 283.46 425.2 212.6"/><polygon class="cls-3" points="283.47 212.6 354.33 141.73 212.6 141.73 283.47 212.6"/><polygon class="cls-3" points="141.73 212.6 212.6 283.46 212.6 141.73 141.73 212.6"/><polygon class="cls-3" points="283.47 212.6 212.6 283.46 354.33 283.46 283.47 212.6"/><path class="cls-2" d="M487.4,217H461.71v25.36H448.82V183h12.89v24.3H487.4V183h12.89v59.35H487.4Z"/><path class="cls-2" d="M531.15,243.39c-12.8,0-23.31-5.09-23.56-19.29h12.89c.16,6.32,3.86,10.1,10.92,10.1,5.25,0,11.16-2.63,11.16-8.54,0-4.6-4-6.08-10.67-8l-4.27-1.24c-9.35-2.7-18.63-6.32-18.63-17,0-13.22,12.31-17.65,23.56-17.65,11.57,0,21.51,4,21.59,17.16H541.25c-.49-5.42-3.61-8.54-9.69-8.54-4.76,0-9.52,2.55-9.52,7.8,0,4.35,3.94,5.66,12.31,8.29l4.93,1.56c10.18,3.2,16.58,6.73,16.58,16.58C555.86,238.22,542.81,243.39,531.15,243.39Z"/><path class="cls-2" d="M563.12,183h20.61c6.48,0,9.11.17,11.65.74C602.61,185.35,608,190,608,198c0,7.64-4.85,11.58-11.83,13.39,8,1.47,14,5.58,14,14.36,0,13.46-13.3,16.58-23.72,16.58H563.12Zm20.69,24.71c5.66,0,11.41-1.15,11.41-8,0-6.16-5.42-7.8-10.59-7.8h-9v15.84ZM585,233.46c6,0,11.9-1.4,11.9-8.62,0-7.06-5.09-8.7-11.16-8.7H575.6v17.32Z"/><path class="cls-2" d="M643.75,243.39c-19.13,0-27.75-12.23-27.75-30.29,0-17.9,9.52-31.28,28.4-31.28,11.82,0,23.32,5.26,23.65,18.72h-13.3c-.66-5.91-4.6-9-10.35-9-11.57,0-15.1,12.48-15.1,22S632.83,234,644,234c5.83,0,10.1-3.12,11-9.11h13.38C666.9,238.3,656.06,243.39,643.75,243.39Z"/><path class="cls-2" d="M748.8,187.44l-22.34,54.94H721.2l-22.41-54.94v54.94h-5V183h8.78L724,236l21.27-53h8.78v59.37H748.8Z"/><path class="cls-2" d="M793,235.73c-3.45,4.93-7.39,7.06-13.46,7.06-11.09,0-14.79-6.08-14.79-16.51V200.91h5v23.4c0,7.72,1.81,14.29,10.6,14.29,9.36,0,12.48-7.8,12.48-16V200.91h5V230c0,4.11.08,8.29.25,12.4H793.2Z"/><path class="cls-2" d="M819.93,242.71c-6,0-8.79-2.88-8.79-8.87V204.6h-8.21v-3.69h8.21v-8.54l5-2.22v10.76h9.28v3.69h-9.28v27c0,4.68.66,6.9,5.83,6.9a24.67,24.67,0,0,0,3.78-.49v4.27A47.6,47.6,0,0,1,819.93,242.71Z"/><path class="cls-2" d="M859.12,235.73c-3.45,4.93-7.39,7.06-13.47,7.06-11.08,0-14.78-6.08-14.78-16.51V200.91h5v23.4c0,7.72,1.81,14.29,10.6,14.29,9.36,0,12.48-7.8,12.48-16V200.91h5V230c0,4.11.08,8.29.24,12.4h-4.92Z"/><path class="cls-2" d="M899.22,236.38c-3.45,5.26-7.72,6.9-13.88,6.9-7.55,0-14.45-3.77-14.45-12.15,0-13.22,15.44-13.63,25.62-13.63h2.14c.08-1,.08-1.89.08-2.88,0-7.06-2.79-10.67-10.1-10.67-5.34,0-9,1.72-9.61,7.63h-4.93c.08-8.29,7.23-11.41,14.54-11.41,10.26,0,15,4.27,15,14.54V227a136.16,136.16,0,0,0,.82,15.36h-4.6C899.71,240.41,899.47,238.36,899.22,236.38ZM894.7,221c-6.89,0-18.72.41-18.72,9.93,0,5.75,5,8.71,10.27,8.71,11.82,0,12.56-9.36,12.56-18.48C897.41,221.11,896.1,221,894.7,221Z"/><path class="cls-2" d="M913.39,183h5v59.37h-5Z"/><path class="cls-2" d="M951.82,209.28h27.27v4.44H951.82v28.66h-5.33V183h33.75v4.43H951.82Z"/><path class="cls-2" d="M1013.78,235.73c-3.45,4.93-7.39,7.06-13.47,7.06-11.09,0-14.78-6.08-14.78-16.51V200.91h5v23.4c0,7.72,1.8,14.29,10.59,14.29,9.36,0,12.48-7.8,12.48-16V200.91h5V230c0,4.11.08,8.29.25,12.4h-4.93Z"/><path class="cls-2" d="M1056.54,219c0-7.71-.91-14.28-10.43-14.28-9.37,0-12.65,7.39-12.65,15.6v22.09h-5V212.65c0-3.94-.25-7.8-.25-11.74h4.93l.33,6.9c3.37-5,7.47-7.31,13.55-7.31,11.25,0,14.54,6.24,14.54,16.5v25.38h-5Z"/><path class="cls-2" d="M1100.19,235.48c-3.53,5.26-7.15,7.56-13.55,7.56-12.48,0-18-10.6-18-21.85,0-10.67,5.67-21,17.58-21,6.57,0,10.76,2.38,14,8.13V183h5v47c0,4.11,0,8.29.33,12.4h-4.93Zm-13.55-31.37c-9.69,0-12.65,9.36-12.65,17.49,0,8.63,3.53,17.41,13.55,17.41,9.69,0,12.65-9,12.65-17.24C1100.19,213.23,1096.49,204.11,1086.64,204.11Z"/></svg>