<?xml version="1.0" encoding="utf-8"?>
<!-- Generator: Adobe Illustrator 20.1.0, SVG Export Plug-In . SVG Version: 6.00 Build 0)  -->
<svg version="1.1" id="Layer_1" xmlns="http://www.w3.org/2000/svg" xmlns:xlink="http://www.w3.org/1999/xlink" x="0px" y="0px"
	 viewBox="0 0 180 32.1" style="enable-background:new 0 0 180 32.1;" xml:space="preserve">
<style type="text/css">
	.st0{fill-rule:evenodd;clip-rule:evenodd;}
</style>
<path class="st0" d="M50.8,19.7c0,1-1.1,1.5-1.9,1.7c-0.3-0.4-0.6-0.9-0.6-1.3c0-0.8,0.6-1.3,1.3-1.3C50.2,18.8,50.8,19,50.8,19.7"
	/>
<path class="st0" d="M13.8,29.9L20.7,18L16,18l2.3-4l10.9,0l-2.3,4L23,18L16,30.1c7.7,0,14-6.3,14-14.1c0-7.7-6.3-14-14-14
	c-0.6,0-1.1,0-1.7,0.1L7.5,14H16l-2.3,4H2.9l8.8-15.3C6.1,4.5,2,9.8,2,16C2,23,7.1,28.8,13.8,29.9 M16,0c8.8,0,16,7.2,16,16
	c0,8.8-7.2,16.1-16,16.1C7.2,32.1,0,24.9,0,16C0,7.2,7.2,0,16,0"/>
<polygon class="st0" points="38,21.1 44.1,21.1 44.5,19.4 40.5,19.4 42.4,10.4 40.2,10.4 "/>
<path class="st0" d="M51.6,21.1h2.3l-1.2-1.8c1.1-1.1,1.7-2.5,1.8-4h-1.9c0,0.9-0.4,1.8-0.9,2.6l-1.5-2.2c1.4-0.5,2.8-1.3,2.8-3
	c0-1.7-1.7-2.4-3-2.4c-1.6,0-3.2,0.9-3.2,2.7c0,0.9,0.3,1.4,0.8,2c-1.6,0.5-2.9,1.5-2.9,3.3c0,2.2,1.8,3,3.7,3c1,0,2.2-0.3,2.9-0.8
	L51.6,21.1z M50.3,19.2c-0.5,0.4-1.2,0.5-1.8,0.5c-1,0-1.9-0.4-1.9-1.5c0-1.1,0.9-1.5,1.8-1.9L50.3,19.2z M51.2,12.7
	c0,1-1.1,1.5-1.9,1.7c-0.3-0.4-0.6-0.9-0.6-1.3c0-0.8,0.6-1.3,1.3-1.3C50.6,11.7,51.2,11.9,51.2,12.7"/>
<polygon class="st0" points="54.2,12.1 57.1,12.1 55.2,21.1 57.4,21.1 59.3,12.1 62,12.1 62.4,10.4 54.6,10.4 "/>
<polygon points="66.9,10.4 72.8,10.4 72.4,12.1 68.7,12.1 68.1,14.7 71.7,14.7 71.4,16.4 67.8,16.4 66.8,21.1 64.7,21.1 "/>
<path d="M73.6,13.2h2.1l-1.7,7.9h-2.1L73.6,13.2z M74.3,9.8h2.1l-0.4,2h-2.1L74.3,9.8z"/>
<path d="M76.9,14.3c0.1-0.5,0.2-0.9,0.2-1.1h2L79,14h0c0.6-0.5,1.3-1,2.2-1c1.6,0,2.6,1,2.6,2.5c0,0.6-0.2,1.2-0.3,1.7l-0.8,3.8
	h-2.1l0.8-3.7c0.1-0.5,0.2-1.1,0.2-1.7c0-0.7-0.5-1.1-1.1-1.1c-1.4,0-1.9,1.3-2.2,2.5l-0.8,4h-2.1L76.9,14.3z"/>
<path d="M89.1,19.9L89.1,19.9c-0.7,0.9-1.4,1.4-2.6,1.4c-1.4,0-2.4-0.8-2.4-2.3c0-2.6,2.9-2.8,4.8-2.8h0.7c0.1-0.2,0.1-0.4,0.1-0.7
	c0-0.8-0.9-1-1.6-1c-0.9,0-1.8,0.2-2.6,0.6l0.3-1.6c0.9-0.3,1.8-0.5,2.7-0.5c1.6,0,3.1,0.6,3.1,2.4c0,1.1-0.8,4.2-1,5.6h-1.7
	L89.1,19.9z M87.1,19.8c1.5,0,2-1.1,2.3-2.3h-0.7c-1,0-2.7,0.2-2.7,1.5C86.1,19.5,86.6,19.8,87.1,19.8"/>
<path d="M93.8,14.3c0.1-0.5,0.2-0.9,0.2-1.1h2L95.9,14h0c0.6-0.5,1.3-1,2.2-1c1.5,0,2.6,1,2.6,2.5c0,0.6-0.2,1.2-0.3,1.7l-0.8,3.8
	h-2.1l0.8-3.7c0.1-0.5,0.2-1.1,0.2-1.7c0-0.7-0.5-1.1-1.1-1.1c-1.4,0-1.9,1.3-2.2,2.5l-0.8,4h-2.1L93.8,14.3z"/>
<path d="M107.9,15c-0.4-0.3-0.9-0.4-1.5-0.4c-1.6,0-2.6,1.5-2.6,3c0,1,0.3,2.1,1.7,2.1c0.5,0,1.1-0.1,1.7-0.4l-0.2,1.6
	c-0.6,0.3-1.3,0.4-2,0.4c-2,0-3.4-1.4-3.4-3.4c0-2.8,1.8-4.9,4.7-4.9c0.8,0,1.5,0.1,2.1,0.3L107.9,15z"/>
<path d="M109.6,13.2h2.1l-1.7,7.9h-2.1L109.6,13.2z M110.3,9.8h2.1l-0.4,2h-2.1L110.3,9.8z"/>
<path d="M116.5,19.9L116.5,19.9c-0.7,0.9-1.4,1.4-2.6,1.4c-1.4,0-2.4-0.8-2.4-2.3c0-2.6,2.9-2.8,4.8-2.8h0.7
	c0.1-0.2,0.1-0.4,0.1-0.7c0-0.8-0.9-1-1.6-1c-0.9,0-1.8,0.2-2.6,0.6l0.3-1.6c0.9-0.3,1.8-0.5,2.7-0.5c1.6,0,3.1,0.6,3.1,2.4
	c0,1.1-0.8,4.2-1,5.6h-1.7L116.5,19.9z M114.5,19.8c1.5,0,2-1.1,2.3-2.3h-0.7c-1,0-2.7,0.2-2.7,1.5C113.4,19.5,114,19.8,114.5,19.8"
	/>
<polygon points="121.8,9.6 123.8,9.6 121.4,21.1 119.3,21.1 "/>
<path d="M135.6,12.5c-0.6-0.3-1.4-0.6-2.2-0.6c-0.8,0-1.8,0.3-1.8,1.2c0,1.7,3.6,1.6,3.6,4.6c0,2.6-2.1,3.6-4.4,3.6
	c-1,0-2.1-0.2-3.1-0.6l0.6-1.8c0.8,0.4,1.7,0.7,2.6,0.7c1,0,2-0.5,2-1.7c0-1.9-3.6-1.6-3.6-4.5c0-2.3,1.9-3.2,4-3.2
	c0.9,0,1.9,0.1,2.8,0.5L135.6,12.5z"/>
<path d="M138,17.8c0,1.5,0.8,2,2.2,2c0.8,0,1.7-0.2,2.4-0.6l-0.3,1.6c-0.8,0.2-1.7,0.4-2.5,0.4c-2.3,0-3.8-1.1-3.8-3.5
	c0-2.5,1.9-4.8,4.5-4.8c1.9,0,3.2,1,3.2,3c0,0.6-0.1,1.2-0.2,1.8H138z M141.7,16.4c0-0.2,0-0.4,0-0.5c0-0.8-0.4-1.3-1.3-1.3
	c-1.3,0-1.8,0.8-2.2,1.9H141.7z"/>
<path d="M154.9,13.2l-3.1,5.8h0l-0.8-5.9h-1.7c-1,0-2,0.7-2.3,1.5h0l0.3-1.5h-2c-0.1,0.4-0.1,0.7-0.2,1.1l-1.4,6.8h2.1l0.7-3.5
	c0.3-1.5,1-2.7,2.5-2.7c0.1,0,0.1,0,0.2,0l1.1,6.3h2.3l4.6-7.9H154.9z M149.3,14.8C149.3,14.8,149.3,14.8,149.3,14.8
	C149.3,14.8,149.3,14.8,149.3,14.8 M149.4,14.8C149.4,14.8,149.5,14.8,149.4,14.8C149.5,14.8,149.4,14.8,149.4,14.8 M149.5,14.9
	C149.6,14.9,149.6,14.9,149.5,14.9C149.6,14.9,149.6,14.9,149.5,14.9 M149.6,14.9C149.7,14.9,149.7,14.9,149.6,14.9
	C149.7,14.9,149.6,14.9,149.6,14.9 M149.7,14.9C149.7,14.9,149.7,14.9,149.7,14.9C149.7,14.9,149.7,14.9,149.7,14.9 M149.8,14.9
	C149.8,14.9,149.8,14.9,149.8,14.9C149.8,14.9,149.8,14.9,149.8,14.9"/>
<path d="M157.7,13.2h2.1l-1.7,7.9H156L157.7,13.2z M158.4,9.8h2.1l-0.4,2H158L158.4,9.8z"/>
<path d="M166.1,15c-0.4-0.3-0.9-0.4-1.5-0.4c-1.6,0-2.6,1.5-2.6,3c0,1,0.3,2.1,1.7,2.1c0.5,0,1.1-0.1,1.7-0.4l-0.2,1.6
	c-0.6,0.3-1.3,0.4-2,0.4c-2,0-3.4-1.4-3.4-3.4c0-2.8,1.8-4.9,4.7-4.9c0.8,0,1.5,0.1,2.1,0.3L166.1,15z"/>
<path d="M167.8,17.8c0,1.5,0.8,2,2.2,2c0.8,0,1.7-0.2,2.4-0.6l-0.3,1.6c-0.8,0.2-1.7,0.4-2.5,0.4c-2.3,0-3.8-1.1-3.8-3.5
	c0-2.5,1.9-4.8,4.5-4.8c1.9,0,3.2,1,3.2,3c0,0.6-0.1,1.2-0.2,1.8H167.8z M171.6,16.4c0-0.2,0-0.4,0-0.5c0-0.8-0.4-1.3-1.3-1.3
	c-1.3,0-1.8,0.8-2.2,1.9H171.6z"/>
<path d="M179.6,14.9c-0.5-0.2-1.1-0.4-1.7-0.4c-0.6,0-1.4,0.2-1.4,0.8c0,1,2.7,1.4,2.7,3.3c0,2.1-1.8,2.7-3.6,2.7
	c-0.8,0-1.7-0.1-2.4-0.5l0.4-1.6c0.6,0.3,1.2,0.6,2,0.6c0.7,0,1.4-0.2,1.4-0.9c0-1.3-2.7-1.4-2.7-3.4c0-1.9,1.8-2.5,3.4-2.5
	c0.8,0,1.5,0.1,2.2,0.3L179.6,14.9z"/>
</svg>
